# Blender v2.92.0 OBJ File: ''
# www.blender.org
mtllib 10.mtl
o 立方体_立方体.001
v 2.967298 1.640812 6.406505
v 2.350497 1.340852 6.353182
v 2.843054 1.640812 4.993808
v 2.277913 1.340852 5.231397
v 2.126133 1.640812 5.088454
v 2.823716 1.340852 6.250356
v 2.209542 1.640812 6.513270
v 2.701469 1.340852 5.143865
v 2.967298 1.340852 6.406505
v 2.209542 1.340852 6.513270
v 2.126133 1.335928 5.088454
v 2.843054 1.341867 4.993808
v 2.350497 1.640812 6.353182
v 2.277913 1.640812 5.231397
v 2.701469 1.640812 5.143865
v 2.823716 1.640812 6.250356
vt 0.000000 0.000000
vt 0.000000 0.000000
vt 0.000000 0.000000
vt 0.000000 0.000000
vt 0.653294 0.735800
vt 0.846707 0.736022
vt 0.875000 0.750000
vt 0.625000 0.750000
vt 0.653216 0.514185
vt 0.625000 0.500000
vt 0.846784 0.513964
vt 0.875000 0.500000
vt 0.625000 0.750000
vt 0.625000 0.500000
vt 0.000000 0.000000
vt 0.000000 0.000000
vt 0.000000 0.000000
vt 0.000000 0.000000
vt 0.875000 0.500000
vt 0.875000 0.750000
vt 0.000000 0.000000
vt 0.000000 0.000000
vn 0.9979 0.0000 -0.0646
vn 0.0000 1.0000 0.0000
vn 0.9962 0.0000 -0.0876
vn -0.9940 0.0000 0.1098
vn -0.1309 0.0000 -0.9914
vn 0.1395 0.0000 0.9902
vn 0.2024 0.0000 0.9793
vn -0.2123 0.0000 -0.9772
vn -0.9983 0.0000 0.0584
vn 0.0000 -1.0000 -0.0000
vn 0.0036 -1.0000 -0.0008
vn 0.0169 -0.9999 0.0009
vn 0.0073 -0.9999 0.0131
usemtl None
s off
f 2/1/1 4/2/1 14/3/1 13/4/1
f 16/5/2 13/6/2 7/7/2 1/8/2
f 15/9/2 16/5/2 1/8/2 3/10/2
f 14/11/2 15/9/2 3/10/2 5/12/2
f 13/6/2 14/11/2 5/12/2 7/7/2
f 9/13/3 12/14/3 3/10/3 1/8/3
f 8/15/4 6/16/4 16/17/4 15/18/4
f 12/14/5 11/19/5 5/12/5 3/10/5
f 10/20/6 9/13/6 1/8/6 7/7/6
f 4/2/7 8/15/7 15/18/7 14/3/7
f 6/16/8 2/1/8 13/4/8 16/17/8
f 11/19/9 10/20/9 7/7/9 5/12/9
f 2/1/10 6/16/10 9/13/10 10/20/10
f 6/16/11 8/15/11 12/21/11 9/13/11
f 2/1/12 10/20/12 11/22/12 4/2/12
f 4/2/13 11/22/13 12/21/13 8/15/13
