# Blender v2.92.0 OBJ File: ''
# www.blender.org
mtllib 11.mtl
o 立方体_立方体.001
v 2.020846 1.640812 6.589663
v 0.846190 1.340852 6.628222
v 1.909728 1.640812 4.382843
v 0.471707 1.340852 4.567927
v 0.319927 1.640812 4.424984
v 1.877264 1.340852 6.433514
v 0.705234 1.640812 6.788310
v 1.768143 1.340852 4.532899
v 2.020846 1.340852 6.589663
v 0.705234 1.340852 6.788310
v 0.319927 1.335928 4.424984
v 1.909728 1.341867 4.382843
v 0.846190 1.640812 6.628222
v 0.471707 1.640812 4.567927
v 1.768143 1.640812 4.532899
v 1.877264 1.640812 6.433514
vt 0.000000 0.000000
vt 0.000000 0.000000
vt 0.000000 0.000000
vt 0.000000 0.000000
vt 0.653294 0.735800
vt 0.846707 0.736022
vt 0.875000 0.750000
vt 0.625000 0.750000
vt 0.653216 0.514185
vt 0.625000 0.500000
vt 0.846784 0.513964
vt 0.875000 0.500000
vt 0.625000 0.750000
vt 0.625000 0.500000
vt 0.000000 0.000000
vt 0.000000 0.000000
vt 0.000000 0.000000
vt 0.000000 0.000000
vt 0.875000 0.500000
vt 0.875000 0.750000
vt 0.000000 0.000000
vt 0.000000 0.000000
vn 0.9839 0.0000 -0.1788
vn 0.0000 1.0000 0.0000
vn 0.9987 0.0000 -0.0503
vn -0.9984 0.0000 0.0573
vn -0.0265 0.0000 -0.9996
vn 0.1493 0.0000 0.9888
vn 0.0270 0.0000 0.9996
vn -0.1856 0.0000 -0.9826
vn -0.9870 0.0000 0.1609
vn 0.0000 -1.0000 -0.0000
vn 0.0036 -1.0000 -0.0004
vn 0.0167 -0.9999 -0.0018
vn 0.0024 -0.9999 0.0133
usemtl None
s off
f 2/1/1 4/2/1 14/3/1 13/4/1
f 16/5/2 13/6/2 7/7/2 1/8/2
f 15/9/2 16/5/2 1/8/2 3/10/2
f 14/11/2 15/9/2 3/10/2 5/12/2
f 13/6/2 14/11/2 5/12/2 7/7/2
f 9/13/3 12/14/3 3/10/3 1/8/3
f 8/15/4 6/16/4 16/17/4 15/18/4
f 12/14/5 11/19/5 5/12/5 3/10/5
f 10/20/6 9/13/6 1/8/6 7/7/6
f 4/2/7 8/15/7 15/18/7 14/3/7
f 6/16/8 2/1/8 13/4/8 16/17/8
f 11/19/9 10/20/9 7/7/9 5/12/9
f 2/1/10 6/16/10 9/13/10 10/20/10
f 6/16/11 8/15/11 12/21/11 9/13/11
f 2/1/12 10/20/12 11/22/12 4/2/12
f 4/2/13 11/22/13 12/21/13 8/15/13
