# Blender v2.92.0 OBJ File: ''
# www.blender.org
mtllib 15.mtl
o 立方体_立方体.001
v -0.263759 1.640812 10.323754
v -0.970911 1.340852 10.248774
v -0.479254 1.640812 8.688134
v -1.094863 1.340852 8.912870
v -1.246643 1.640812 8.769928
v -0.407342 1.340852 10.167605
v -1.111866 1.640812 10.408862
v -0.620838 1.340852 8.838191
v -0.263759 1.340852 10.323754
v -1.111866 1.340852 10.408862
v -1.246643 1.335928 8.769928
v -0.479254 1.341867 8.688134
v -0.970911 1.640812 10.248774
v -1.094863 1.640812 8.912870
v -0.620838 1.640812 8.838191
v -0.407342 1.640812 10.167605
vt 0.000000 0.000000
vt 0.000000 0.000000
vt 0.000000 0.000000
vt 0.000000 0.000000
vt 0.653294 0.735800
vt 0.846707 0.736022
vt 0.875000 0.750000
vt 0.625000 0.750000
vt 0.653216 0.514185
vt 0.625000 0.500000
vt 0.846784 0.513964
vt 0.875000 0.500000
vt 0.625000 0.750000
vt 0.625000 0.500000
vt 0.000000 0.000000
vt 0.000000 0.000000
vt 0.000000 0.000000
vt 0.000000 0.000000
vt 0.875000 0.500000
vt 0.875000 0.750000
vt 0.000000 0.000000
vt 0.000000 0.000000
vn 0.9957 0.0000 -0.0924
vn 0.0000 1.0000 0.0000
vn 0.9914 0.0000 -0.1306
vn -0.9873 0.0000 0.1586
vn -0.1060 0.0000 -0.9944
vn 0.0998 0.0000 0.9950
vn 0.1556 0.0000 0.9878
vn -0.1426 0.0000 -0.9898
vn -0.9966 0.0000 0.0820
vn 0.0000 -1.0000 0.0000
vn 0.0036 -1.0000 -0.0009
vn 0.0168 -0.9999 0.0002
vn 0.0064 -0.9999 0.0131
usemtl None
s off
f 2/1/1 4/2/1 14/3/1 13/4/1
f 16/5/2 13/6/2 7/7/2 1/8/2
f 15/9/2 16/5/2 1/8/2 3/10/2
f 14/11/2 15/9/2 3/10/2 5/12/2
f 13/6/2 14/11/2 5/12/2 7/7/2
f 9/13/3 12/14/3 3/10/3 1/8/3
f 8/15/4 6/16/4 16/17/4 15/18/4
f 12/14/5 11/19/5 5/12/5 3/10/5
f 10/20/6 9/13/6 1/8/6 7/7/6
f 4/2/7 8/15/7 15/18/7 14/3/7
f 6/16/8 2/1/8 13/4/8 16/17/8
f 11/19/9 10/20/9 7/7/9 5/12/9
f 2/1/10 6/16/10 9/13/10 10/20/10
f 6/16/11 8/15/11 12/21/11 9/13/11
f 2/1/12 10/20/12 11/22/12 4/2/12
f 4/2/13 11/22/13 12/21/13 8/15/13
o 立方体.001_立方体.003
v -0.965960 1.640812 10.381642
v -1.705015 1.340852 10.329449
v -1.053840 1.640812 9.548166
v -1.778833 1.340852 9.777460
v -1.930613 1.640812 9.634518
v -1.109542 1.340852 10.225493
v -1.845971 1.640812 10.489537
v -1.195425 1.340852 9.698223
v -0.965960 1.340852 10.381642
v -1.845971 1.340852 10.489537
v -1.930613 1.335928 9.634518
v -1.053840 1.341867 9.548166
v -1.705015 1.640812 10.329449
v -1.778833 1.640812 9.777460
v -1.195425 1.640812 9.698223
v -1.109542 1.640812 10.225493
vt 0.000000 0.000000
vt 0.000000 0.000000
vt 0.000000 0.000000
vt 0.000000 0.000000
vt 0.653294 0.735800
vt 0.846707 0.736022
vt 0.875000 0.750000
vt 0.625000 0.750000
vt 0.653216 0.514185
vt 0.625000 0.500000
vt 0.846784 0.513964
vt 0.875000 0.500000
vt 0.625000 0.750000
vt 0.625000 0.500000
vt 0.000000 0.000000
vt 0.000000 0.000000
vt 0.000000 0.000000
vt 0.000000 0.000000
vt 0.875000 0.500000
vt 0.875000 0.750000
vt 0.000000 0.000000
vt 0.000000 0.000000
vn 0.9912 0.0000 -0.1326
vn 0.0000 1.0000 -0.0000
vn 0.9945 0.0000 -0.1049
vn -0.9870 0.0000 0.1608
vn -0.0980 0.0000 -0.9952
vn 0.1217 0.0000 0.9926
vn 0.1346 0.0000 0.9909
vn -0.1720 0.0000 -0.9851
vn -0.9951 0.0000 0.0985
vn 0.0000 -1.0000 0.0000
vn 0.0036 -1.0000 -0.0012
vn 0.0169 -0.9999 0.0016
vn 0.0056 -0.9999 0.0131
usemtl None
s off
f 18/23/14 20/24/14 30/25/14 29/26/14
f 32/27/15 29/28/15 23/29/15 17/30/15
f 31/31/15 32/27/15 17/30/15 19/32/15
f 30/33/15 31/31/15 19/32/15 21/34/15
f 29/28/15 30/33/15 21/34/15 23/29/15
f 25/35/16 28/36/16 19/32/16 17/30/16
f 24/37/17 22/38/17 32/39/17 31/40/17
f 28/36/18 27/41/18 21/34/18 19/32/18
f 26/42/19 25/35/19 17/30/19 23/29/19
f 20/24/20 24/37/20 31/40/20 30/25/20
f 22/38/21 18/23/21 29/26/21 32/39/21
f 27/41/22 26/42/22 23/29/22 21/34/22
f 18/23/23 22/38/23 25/35/23 26/42/23
f 22/38/24 24/37/24 28/43/24 25/35/24
f 18/23/25 26/42/25 27/44/25 20/24/25
f 20/24/26 27/44/26 28/43/26 24/37/26
