# Blender v2.92.0 OBJ File: ''
# www.blender.org
mtllib 3.mtl
o 立方体_立方体.001
v -3.794727 1.238833 3.839238
v -4.579541 0.938873 3.679412
v -3.791576 1.238833 1.842653
v -4.522251 0.938873 1.991896
v -4.674030 1.238833 1.848953
v -3.938310 0.938873 3.683089
v -4.720496 1.238833 3.839500
v -3.933161 0.938873 1.992709
v -3.794727 0.938873 3.839238
v -4.720496 0.938873 3.839500
v -4.674030 0.933949 1.848953
v -3.791576 0.939888 1.842653
v -4.579541 1.238833 3.679412
v -4.522251 1.238833 1.991896
v -3.933161 1.238833 1.992709
v -3.938310 1.238833 3.683089
vt 0.000000 0.000000
vt 0.000000 0.000000
vt 0.000000 0.000000
vt 0.000000 0.000000
vt 0.653294 0.735800
vt 0.846707 0.736022
vt 0.875000 0.750000
vt 0.625000 0.750000
vt 0.653216 0.514185
vt 0.625000 0.500000
vt 0.846784 0.513964
vt 0.875000 0.500000
vt 0.625000 0.750000
vt 0.625000 0.500000
vt 0.000000 0.000000
vt 0.000000 0.000000
vt 0.000000 0.000000
vt 0.000000 0.000000
vt 0.875000 0.500000
vt 0.875000 0.750000
vt 0.000000 0.000000
vt 0.000000 0.000000
vn 0.9994 0.0000 0.0339
vn 0.0000 1.0000 0.0000
vn 1.0000 0.0000 0.0016
vn -1.0000 0.0000 -0.0030
vn -0.0071 0.0000 -1.0000
vn 0.0003 0.0000 1.0000
vn -0.0014 0.0000 1.0000
vn 0.0057 0.0000 -1.0000
vn -0.9997 0.0000 -0.0233
vn 0.0000 -1.0000 0.0000
vn 0.0036 -1.0000 -0.0003
vn 0.0169 -0.9999 0.0018
vn 0.0041 -0.9999 0.0132
usemtl None
s off
f 2/1/1 4/2/1 14/3/1 13/4/1
f 16/5/2 13/6/2 7/7/2 1/8/2
f 15/9/2 16/5/2 1/8/2 3/10/2
f 14/11/2 15/9/2 3/10/2 5/12/2
f 13/6/2 14/11/2 5/12/2 7/7/2
f 9/13/3 12/14/3 3/10/3 1/8/3
f 8/15/4 6/16/4 16/17/4 15/18/4
f 12/14/5 11/19/5 5/12/5 3/10/5
f 10/20/6 9/13/6 1/8/6 7/7/6
f 4/2/7 8/15/7 15/18/7 14/3/7
f 6/16/8 2/1/8 13/4/8 16/17/8
f 11/19/9 10/20/9 7/7/9 5/12/9
f 2/1/10 6/16/10 9/13/10 10/20/10
f 6/16/11 8/15/11 12/21/11 9/13/11
f 2/1/12 10/20/12 11/22/12 4/2/12
f 4/2/13 11/22/13 12/21/13 8/15/13
