# Blender v2.93.0 OBJ File: 'untitled.blend'
# www.blender.org
mtllib 23.mtl
o 立方体_立方体.001
v -1.528033 1.640812 13.051898
v -2.659956 1.340852 13.205356
v -1.881092 1.640812 11.537359
v -2.945173 1.340852 11.884949
v -3.106068 1.640812 11.814928
v -1.680731 1.340852 12.986902
v -2.764451 1.640812 13.351771
v -1.981658 1.340852 11.687415
v -1.528033 1.340852 13.051898
v -2.764451 1.340852 13.351771
v -3.106068 1.335928 11.814928
v -1.881092 1.341867 11.537359
v -2.659956 1.640812 13.205356
v -2.945173 1.640812 11.884949
v -1.981658 1.640812 11.687415
v -1.680731 1.640812 12.986902
vt 0.000000 0.000000
vt 0.000000 0.000000
vt 0.000000 0.000000
vt 0.000000 0.000000
vt 0.653294 0.735800
vt 0.846707 0.736022
vt 0.875000 0.750000
vt 0.625000 0.750000
vt 0.653216 0.514185
vt 0.625000 0.500000
vt 0.846784 0.513964
vt 0.875000 0.500000
vt 0.625000 0.750000
vt 0.625000 0.500000
vt 0.000000 0.000000
vt 0.000000 0.000000
vt 0.000000 0.000000
vt 0.000000 0.000000
vt 0.875000 0.500000
vt 0.875000 0.750000
vt 0.000000 0.000000
vt 0.000000 0.000000
vn 0.9775 0.0000 -0.2111
vn 0.0000 1.0000 0.0000
vn 0.9739 0.0000 -0.2270
vn -0.9742 0.0000 0.2256
vn -0.2210 0.0000 -0.9753
vn 0.2357 0.0000 0.9718
vn 0.2008 0.0000 0.9796
vn -0.2177 0.0000 -0.9760
vn -0.9762 0.0000 0.2170
vn 0.0000 -1.0000 0.0000
vn 0.0036 -1.0000 -0.0012
vn 0.0179 -0.9998 -0.0022
vn 0.0062 -0.9999 0.0161
usemtl None
s off
f 2/1/1 4/2/1 14/3/1 13/4/1
f 16/5/2 13/6/2 7/7/2 1/8/2
f 15/9/2 16/5/2 1/8/2 3/10/2
f 14/11/2 15/9/2 3/10/2 5/12/2
f 13/6/2 14/11/2 5/12/2 7/7/2
f 9/13/3 12/14/3 3/10/3 1/8/3
f 8/15/4 6/16/4 16/17/4 15/18/4
f 12/14/5 11/19/5 5/12/5 3/10/5
f 10/20/6 9/13/6 1/8/6 7/7/6
f 4/2/7 8/15/7 15/18/7 14/3/7
f 6/16/8 2/1/8 13/4/8 16/17/8
f 11/19/9 10/20/9 7/7/9 5/12/9
f 2/1/10 6/16/10 9/13/10 10/20/10
f 6/16/11 8/15/11 12/21/11 9/13/11
f 2/1/12 10/20/12 11/22/12 4/2/12
f 4/2/13 11/22/13 12/21/13 8/15/13
