# Blender v2.93.0 OBJ File: 'untitled.blend'
# www.blender.org
mtllib 33.mtl
o 立方体_立方体.001
v 0.513806 1.640812 -2.713000
v 0.497856 1.340852 -1.813461
v -1.834781 1.640812 -2.343919
v -1.647961 1.340852 -1.463498
v -1.727648 1.640812 -1.375768
v 0.411030 1.340852 -2.632920
v 0.580974 1.640812 -1.710419
v -1.718248 1.340852 -2.272057
v 0.513806 1.340852 -2.713000
v 0.580974 1.340852 -1.710419
v -1.727648 1.335928 -1.375768
v -1.834781 1.341868 -2.343919
v 0.497856 1.640812 -1.813461
v -1.647961 1.640812 -1.463498
v -1.718248 1.640812 -2.272057
v 0.411030 1.640812 -2.632920
v -1.647961 1.340852 -1.463498
v -1.647961 1.640812 -1.463498
v -0.492241 1.640812 -1.648393
v -0.490526 1.640812 -1.547776
v -0.490526 1.338390 -1.547776
v -0.492241 1.340852 -1.648393
v -0.798450 1.640812 -1.522346
v -0.779314 1.640812 -1.440668
v -0.779314 1.337159 -1.440668
v -0.798450 1.340852 -1.522346
v -0.413863 1.640812 -1.648772
v -0.383652 1.640812 -1.544327
v -0.383652 1.339621 -1.544327
v -0.413863 1.340852 -1.648772
v -0.876522 1.640812 -1.526236
v -0.873378 1.640812 -1.436301
v -0.873378 1.336543 -1.436301
v -0.876522 1.340852 -1.526236
v -0.593614 1.640812 -2.418694
v -0.609661 1.640812 -2.502545
v -0.593614 1.340852 -2.418694
v -0.609661 1.341360 -2.502545
v -1.001717 1.640812 -2.412841
v -1.024740 1.640812 -2.494111
v -1.001717 1.340852 -2.412841
v -1.024740 1.341614 -2.494111
v -0.509023 1.640812 -2.425849
v -0.487479 1.640812 -2.505081
v -0.509023 1.340852 -2.425849
v -0.487479 1.341106 -2.505081
v -0.924479 1.640812 -2.409828
v -0.918663 1.640812 -2.499913
v -0.924479 1.340852 -2.409828
v -0.918663 1.341487 -2.499913
vt 0.000000 0.000000
vt 0.000000 0.000000
vt 0.000000 0.000000
vt 0.000000 0.000000
vt 0.653294 0.735800
vt 0.846707 0.736022
vt 0.875000 0.750000
vt 0.625000 0.750000
vt 0.653275 0.680396
vt 0.625000 0.687500
vt 0.846784 0.513964
vt 0.653216 0.514185
vt 0.625000 0.500000
vt 0.875000 0.500000
vt 0.846774 0.541721
vt 0.875000 0.531250
vt 0.625000 0.562500
vt 0.625000 0.500000
vt 0.625000 0.562500
vt 0.000000 0.000000
vt 0.000000 0.000000
vt 0.000000 0.000000
vt 0.000000 0.000000
vt 0.875000 0.500000
vt 0.875000 0.750000
vt 0.625000 0.750000
vt 0.000000 0.000000
vt 0.000000 0.000000
vt 0.000000 0.000000
vt 0.000000 0.000000
vt 0.875000 0.687500
vt 0.875000 0.687500
vt 0.000000 0.000000
vt 0.000000 0.000000
vt 0.156250 0.187500
vt 0.109375 0.093750
vt 0.000000 0.000000
vt 0.000000 0.000000
vt 0.000000 0.000000
vt 0.000000 0.000000
vt 0.656250 0.562500
vt 0.437500 0.375000
vt 0.000000 0.000000
vt 0.875000 0.562500
vt 0.875000 0.625000
vt 0.875000 0.625000
vt 0.875000 0.562500
vt 0.846726 0.680507
vt 0.846745 0.624993
vt 0.000000 0.000000
vt 0.875000 0.531250
vt 0.218750 0.187500
vt 0.000000 0.000000
vt 0.846765 0.569479
vt 0.000000 0.000000
vt 0.000000 0.000000
vt 0.000000 0.000000
vt 0.000000 0.000000
vt 0.312500 0.375000
vt 0.468750 0.562500
vt 0.000000 0.000000
vt 0.000000 0.000000
vt 0.000000 0.000000
vt 0.625000 0.687500
vt 0.625000 0.625000
vt 0.625000 0.625000
vt 0.653245 0.597291
vt 0.653255 0.624993
vt 0.625000 0.593750
vt 0.653235 0.569589
vt 0.234375 0.281250
vt 0.625000 0.593750
vt 0.846765 0.569479
vt 0.846774 0.541721
vt 0.846726 0.680507
vt 0.846745 0.624993
vn -0.0811 0.0000 -0.9967
vn 0.0000 1.0000 0.0000
vn -0.1823 0.0000 -0.9832
vn 0.2196 0.0000 0.9756
vn -0.9939 0.0000 0.1100
vn 0.9978 0.0000 -0.0668
vn 0.9962 0.0000 -0.0866
vn -0.9944 0.0000 0.1054
vn 0.1697 0.0000 0.9855
vn 0.0000 -1.0000 0.0000
vn -0.0020 -1.0000 -0.0098
vn -0.0037 -0.9986 -0.0535
vn 0.0195 -0.9998 -0.0053
vn 0.0000 0.0000 1.0000
vn 0.0070 -0.9998 -0.0191
vn 0.3477 0.0000 0.9376
vn 0.9926 0.0000 -0.1216
vn 0.0464 0.0000 0.9989
vn -0.0107 -0.9994 -0.0325
vn -0.3806 0.0000 -0.9247
vn -0.1778 0.0000 -0.9841
vn -0.0004 -1.0000 -0.0057
vn -0.0323 0.0000 0.9995
vn 0.0707 0.0000 0.9975
vn 0.0034 -0.9989 -0.0470
vn -0.9902 0.0000 0.1398
vn -0.0014 -1.0000 -0.0047
vn 0.0268 0.0000 0.9996
vn -0.0208 0.0000 -0.9998
vn 0.1928 0.0000 0.9812
vn -0.0008 -1.0000 -0.0081
vn -0.0546 0.0000 -0.9985
vn -0.2033 0.0000 -0.9791
vn -0.0006 -1.0000 -0.0020
vn -0.0085 0.0000 -1.0000
vn -0.0003 -1.0000 -0.0066
vn 0.9901 0.0000 -0.1406
vn -0.9915 0.0000 0.1305
usemtl None
s off
f 34/1/1 4/2/1 14/3/1 31/4/1
f 16/5/2 13/6/2 7/7/2 1/8/2
f 43/9/2 16/5/2 1/8/2 44/10/2
f 14/11/2 15/12/2 3/13/2 5/14/2
f 31/15/2 14/11/2 5/14/2 32/16/2
f 42/17/3 12/18/3 3/13/3 40/19/3
f 45/20/4 6/21/4 16/22/4 43/23/4
f 12/18/5 11/24/5 5/14/5 3/13/5
f 10/25/6 9/26/6 1/8/6 7/7/6
f 4/2/7 8/27/7 15/28/7 14/3/7
f 6/21/8 2/29/8 13/30/8 16/22/8
f 29/31/9 10/25/9 7/7/9 28/32/9
f 2/29/10 6/21/10 9/26/10 10/25/10
f 41/33/11 8/27/11 12/34/11 42/35/11
f 34/1/12 33/36/12 11/37/12 4/2/12
f 4/2/13 11/37/13 12/34/13 8/27/13
f 4/2/14 14/3/14 18/38/14 17/39/14
f 30/40/15 29/41/15 21/42/15 22/43/15
f 25/44/16 21/45/16 20/46/16 24/47/16
f 27/48/2 19/49/2 20/46/2 28/32/2
f 27/50/17 30/40/17 45/20/17 43/23/17
f 33/51/18 25/44/18 24/47/18 32/16/18
f 22/43/19 21/42/19 25/52/19 26/53/19
f 19/49/2 23/54/2 24/47/2 20/46/2
f 22/43/20 26/53/20 23/55/20 19/56/20
f 2/29/21 30/40/21 27/50/21 13/30/21
f 13/6/2 27/48/2 28/32/2 7/7/2
f 2/29/22 10/25/22 29/41/22 30/40/22
f 21/45/23 29/31/23 28/32/23 20/46/23
f 11/24/24 33/51/24 32/16/24 5/14/24
f 26/53/25 25/52/25 33/36/25 34/1/25
f 23/54/2 31/15/2 32/16/2 24/47/2
f 34/1/26 31/4/26 39/57/26 41/33/26
f 45/20/27 37/58/27 38/59/27 46/60/27
f 49/61/28 37/58/28 35/62/28 47/63/28
f 46/64/29 38/65/29 36/66/29 44/10/29
f 47/67/2 35/68/2 36/66/2 48/69/2
f 15/12/2 39/70/2 40/19/2 3/13/2
f 8/27/30 41/33/30 39/57/30 15/28/30
f 49/61/31 41/33/31 42/35/31 50/71/31
f 50/72/32 42/17/32 40/19/32 48/69/32
f 9/26/33 46/64/33 44/10/33 1/8/33
f 6/21/34 45/20/34 46/60/34 9/26/34
f 35/68/2 43/9/2 44/10/2 36/66/2
f 38/65/35 50/72/35 48/69/35 36/66/35
f 37/58/36 49/61/36 50/71/36 38/59/36
f 39/70/2 47/67/2 48/69/2 40/19/2
f 26/53/10 34/1/10 41/33/10 49/61/10
f 23/55/37 26/53/37 49/61/37 47/63/37
f 31/15/2 23/54/2 47/73/2 39/74/2
f 22/43/38 19/56/38 35/62/38 37/58/38
f 30/40/10 22/43/10 37/58/10 45/20/10
f 19/49/2 27/48/2 43/75/2 35/76/2
