# Blender v2.93.0 OBJ File: 'untitled.blend'
# www.blender.org
mtllib 34.mtl
o 1_立方体.006
v 2.506269 1.640812 1.501684
v 1.575796 1.340852 1.457110
v 2.194846 1.640812 -0.883161
v 1.333708 1.340852 -0.654158
v 1.245978 1.640812 -0.733845
v 2.408110 1.340852 1.424217
v 1.487819 1.640812 1.555293
v 2.122984 1.340852 -0.766627
v 2.506269 1.340852 1.501684
v 1.487819 1.340852 1.555293
v 1.245978 1.335928 -0.733845
v 2.194846 1.341868 -0.883161
v 1.575796 1.640812 1.457110
v 1.333708 1.640812 -0.654158
v 2.122984 1.640812 -0.766627
v 2.408110 1.640812 1.424217
vt 0.653294 0.735800
vt 0.846707 0.736022
vt 0.875000 0.750000
vt 0.625000 0.750000
vt 0.625000 0.500000
vt 0.625000 0.750000
vt 0.625000 0.500000
vt 0.846784 0.513964
vt 0.653216 0.514185
vt 0.875000 0.500000
vt 0.875000 0.500000
vt 0.875000 0.750000
vt 0.000000 0.000000
vt 0.000000 0.000000
vt 0.000000 0.000000
vt 0.000000 0.000000
vt 0.000000 0.000000
vt 0.000000 0.000000
vt 0.000000 0.000000
vt 0.000000 0.000000
vt 0.000000 0.000000
vt 0.000000 0.000000
vn 0.0000 1.0000 -0.0000
vn 0.9916 0.0000 -0.1295
vn -0.1554 0.0000 -0.9878
vn 0.0526 0.0000 0.9986
vn 0.1411 0.0000 0.9900
vn -0.0395 0.0000 -0.9992
vn 0.0000 -1.0000 0.0000
vn 0.0063 -0.9998 0.0194
vn 0.9935 0.0000 -0.1139
vn -0.9916 0.0000 0.1291
vn 0.0278 -0.9996 -0.0019
vn -0.9945 0.0000 0.1051
vn 0.0058 -1.0000 -0.0010
usemtl None
s off
f 16/1/1 13/2/1 7/3/1 1/4/1
f 3/5/2 1/4/2 9/6/2 12/7/2
f 14/8/1 15/9/1 3/5/1 5/10/1
f 12/7/3 11/11/3 5/10/3 3/5/3
f 10/12/4 9/6/4 1/4/4 7/3/4
f 4/13/5 8/14/5 15/15/5 14/16/5
f 6/17/6 2/18/6 13/19/6 16/20/6
f 2/18/7 6/17/7 9/6/7 10/12/7
f 4/13/8 11/21/8 12/22/8 8/14/8
f 2/18/9 4/13/9 14/16/9 13/19/9
f 15/15/10 8/14/10 6/17/10 16/20/10
f 4/13/11 2/18/11 10/12/11 11/21/11
f 7/3/1 13/19/1 14/8/1 5/10/1
f 7/3/12 5/10/12 11/11/12 10/12/12
f 9/6/13 6/17/13 8/14/13 12/22/13
f 1/4/1 3/5/1 15/15/1 16/1/1
