# Blender v2.93.0 OBJ File: 'untitled.blend'
# www.blender.org
mtllib 39.mtl
o 1.002_立方体.008
v 0.793311 1.640812 -3.034959
v 0.136178 1.340852 -3.005774
v 0.399452 1.640812 -5.189851
v -0.218717 1.340852 -4.982542
v -0.306447 1.640812 -5.062228
v 0.695152 1.340852 -3.112425
v 0.048201 1.640812 -2.907591
v 0.327590 1.340852 -5.073317
v 0.793311 1.340852 -3.034959
v 0.048201 1.340852 -2.907591
v -0.306447 1.335928 -5.062228
v 0.399452 1.341868 -5.189851
v 0.136178 1.640812 -3.005774
v -0.218717 1.640812 -4.982542
v 0.327590 1.640812 -5.073317
v 0.695152 1.640812 -3.112425
vt 0.653294 0.735800
vt 0.846707 0.736022
vt 0.875000 0.750000
vt 0.625000 0.750000
vt 0.625000 0.500000
vt 0.625000 0.750000
vt 0.625000 0.500000
vt 0.846784 0.513964
vt 0.653216 0.514185
vt 0.875000 0.500000
vt 0.875000 0.500000
vt 0.875000 0.750000
vt 0.000000 0.000000
vt 0.000000 0.000000
vt 0.000000 0.000000
vt 0.000000 0.000000
vt 0.000000 0.000000
vt 0.000000 0.000000
vt 0.000000 0.000000
vt 0.000000 0.000000
vt 0.000000 0.000000
vt 0.000000 0.000000
vn 0.0000 1.0000 0.0000
vn 0.9837 0.0000 -0.1798
vn -0.1779 0.0000 -0.9840
vn 0.1685 0.0000 0.9857
vn 0.1639 0.0000 0.9865
vn -0.1874 0.0000 -0.9823
vn 0.0000 -1.0000 0.0000
vn 0.0081 -0.9998 0.0193
vn 0.9843 0.0000 -0.1767
vn -0.9829 0.0000 0.1842
vn 0.0276 -0.9996 -0.0036
vn -0.9867 0.0000 0.1624
vn 0.0057 -1.0000 -0.0013
usemtl None
s off
f 16/1/1 13/2/1 7/3/1 1/4/1
f 3/5/2 1/4/2 9/6/2 12/7/2
f 14/8/1 15/9/1 3/5/1 5/10/1
f 12/7/3 11/11/3 5/10/3 3/5/3
f 10/12/4 9/6/4 1/4/4 7/3/4
f 4/13/5 8/14/5 15/15/5 14/16/5
f 6/17/6 2/18/6 13/19/6 16/20/6
f 2/18/7 6/17/7 9/6/7 10/12/7
f 4/13/8 11/21/8 12/22/8 8/14/8
f 2/18/9 4/13/9 14/16/9 13/19/9
f 15/15/10 8/14/10 6/17/10 16/20/10
f 4/13/11 2/18/11 10/12/11 11/21/11
f 7/3/1 13/19/1 14/8/1 5/10/1
f 7/3/12 5/10/12 11/11/12 10/12/12
f 9/6/13 6/17/13 8/14/13 12/22/13
f 1/4/1 3/5/1 15/15/1 16/1/1
